<svg xmlns="http://www.w3.org/2000/svg" width="1200" height="420" viewBox="0 0 1200 420" role="img" aria-labelledby="title desc">
  <title id="title">Drive Storage Card</title>
  <desc id="desc">Dark Home Assistant dashboard banner showing the Drive Storage Card in a wide responsive layout.</desc>
  <defs>
    <linearGradient id="surface" x1="0" x2="1" y1="0" y2="1">
      <stop offset="0" stop-color="#242a33"/>
      <stop offset="1" stop-color="#181c22"/>
    </linearGradient>
    <filter id="shadow" x="-10%" y="-12%" width="120%" height="130%" color-interpolation-filters="sRGB">
      <feDropShadow dx="0" dy="18" stdDeviation="18" flood-color="#05080c" flood-opacity="0.34"/>
    </filter>
  </defs>

  <rect width="1200" height="420" fill="#161a20"/>
  <path d="M0 341 H1200" stroke="#2f3947" stroke-width="1"/>
  <path d="M0 89 H1200" stroke="#222b35" stroke-width="1"/>
  <path d="M338 0 V420" stroke="#222b35" stroke-width="1"/>
  <path d="M862 0 V420" stroke="#222b35" stroke-width="1"/>

  <g transform="translate(62 64)">
    <rect x="0" y="0" width="62" height="62" rx="16" fill="#0ea5e9"/>
    <path d="M19 20 H43 M19 31 H43 M19 42 H34" stroke="#ffffff" stroke-width="5" stroke-linecap="round"/>
    <text x="0" y="110" font-family="Inter, Segoe UI, Arial, sans-serif" font-size="56" font-weight="800" fill="#f7fbff">Drive Storage Card</text>
    <text x="0" y="150" font-family="Inter, Segoe UI, Arial, sans-serif" font-size="22" fill="#aeb9c8">Responsive Home Assistant storage card</text>
    <g transform="translate(0 186)" font-family="Inter, Segoe UI, Arial, sans-serif" font-size="15" font-weight="700">
      <rect x="0" y="0" width="118" height="34" rx="8" fill="#213243" stroke="#34495e"/>
      <text x="18" y="23" fill="#cdeeff">HACS</text>
      <rect x="132" y="0" width="134" height="34" rx="8" fill="#24313c" stroke="#34495e"/>
      <text x="150" y="23" fill="#d9e5f0">Lovelace</text>
      <rect x="282" y="0" width="146" height="34" rx="8" fill="#2c2b3d" stroke="#45425d"/>
      <text x="300" y="23" fill="#e3defe">TypeScript</text>
    </g>
    <text x="0" y="272" font-family="Inter, Segoe UI, Arial, sans-serif" font-size="17" fill="#8d99a8">Blocks reorder automatically as the dashboard width changes.</text>
  </g>

  <g transform="translate(600 42)" filter="url(#shadow)">
    <rect x="0" y="0" width="590" height="336" rx="18" fill="url(#surface)" stroke="#394453"/>
    <g transform="translate(24 22)">
      <circle cx="24" cy="24" r="18" fill="#0ea5e9"/>
      <text x="58" y="21" font-family="Inter, Segoe UI, Arial, sans-serif" font-size="22" font-weight="800" fill="#f7fbff">Drive Storage</text>
      <text x="58" y="44" font-family="Inter, Segoe UI, Arial, sans-serif" font-size="13" fill="#9eacbb">Status online</text>
      <g transform="translate(490 2)">
        <circle cx="28" cy="28" r="22" fill="none" stroke="#3a404a" stroke-width="5"/>
        <path d="M28 6 A22 22 0 0 1 48 36" fill="none" stroke="#0ea5e9" stroke-width="5" stroke-linecap="round"/>
        <text x="17" y="64" font-family="Inter, Segoe UI, Arial, sans-serif" font-size="13" font-weight="800" fill="#f7fbff">42%</text>
      </g>
    </g>

    <g transform="translate(24 100)" font-family="Inter, Segoe UI, Arial, sans-serif">
      <g>
        <rect x="0" y="0" width="122" height="54" rx="8" fill="#252c36" stroke="#394453"/>
        <circle cx="24" cy="27" r="15" fill="#114c5f"/>
        <text x="50" y="24" font-size="12" fill="#9eacbb">Status</text>
        <text x="50" y="43" font-size="17" font-weight="800" fill="#f7fbff">online</text>
      </g>
      <g transform="translate(134 0)">
        <rect x="0" y="0" width="122" height="54" rx="8" fill="#252c36" stroke="#394453"/>
        <circle cx="24" cy="27" r="15" fill="#4b2632"/>
        <text x="50" y="24" font-size="12" fill="#9eacbb">Problem</text>
        <text x="50" y="43" font-size="17" font-weight="800" fill="#f7fbff">Off</text>
      </g>
      <g transform="translate(268 0)">
        <rect x="0" y="0" width="122" height="54" rx="8" fill="#252c36" stroke="#394453"/>
        <circle cx="24" cy="27" r="15" fill="#13445b"/>
        <text x="50" y="24" font-size="12" fill="#9eacbb">Usage</text>
        <text x="50" y="43" font-size="17" font-weight="800" fill="#f7fbff">42%</text>
      </g>
      <g transform="translate(402 0)">
        <rect x="0" y="0" width="140" height="54" rx="8" fill="#252c36" stroke="#394453"/>
        <circle cx="24" cy="27" r="15" fill="#13445b"/>
        <text x="50" y="24" font-size="12" fill="#9eacbb">Used storage</text>
        <text x="50" y="43" font-size="17" font-weight="800" fill="#f7fbff">420 GiB</text>
      </g>
    </g>

    <g transform="translate(24 176)" font-family="Inter, Segoe UI, Arial, sans-serif">
      <text x="0" y="0" font-size="13" font-weight="800" fill="#9eacbb">STORAGE</text>
      <text x="282" y="0" font-size="13" font-weight="800" fill="#9eacbb">SYSTEM</text>
      <rect x="0" y="13" width="126" height="52" rx="8" fill="#252c36" stroke="#394453"/>
      <circle cx="24" cy="39" r="15" fill="#13445b"/>
      <text x="50" y="45" font-size="16" font-weight="800" fill="#f7fbff">Usage <tspan font-size="12" font-weight="500" fill="#9eacbb">42%</tspan></text>
      <rect x="138" y="13" width="126" height="52" rx="8" fill="#252c36" stroke="#394453"/>
      <circle cx="162" cy="39" r="15" fill="#13445b"/>
      <text x="188" y="45" font-size="16" font-weight="800" fill="#f7fbff">Used <tspan font-size="12" font-weight="500" fill="#9eacbb">420 GiB</tspan></text>
      <rect x="282" y="13" width="260" height="52" rx="8" fill="#252c36" stroke="#394453"/>
      <circle cx="306" cy="39" r="15" fill="#0f4b46"/>
      <text x="332" y="45" font-size="16" font-weight="800" fill="#f7fbff">Fan mode <tspan font-size="12" font-weight="500" fill="#9eacbb">Balance</tspan></text>
    </g>

    <g transform="translate(24 270)" font-family="Inter, Segoe UI, Arial, sans-serif">
      <text x="0" y="0" font-size="13" font-weight="800" fill="#9eacbb">UPDATES</text>
      <text x="282" y="0" font-size="13" font-weight="800" fill="#9eacbb">STORAGE POOLS</text>
      <rect x="0" y="13" width="126" height="42" rx="8" fill="#252c36" stroke="#394453"/>
      <text x="18" y="39" font-size="15" font-weight="800" fill="#f7fbff">OS update</text>
      <rect x="138" y="13" width="126" height="42" rx="8" fill="#252c36" stroke="#394453"/>
      <text x="156" y="39" font-size="15" font-weight="800" fill="#f7fbff">Drive update</text>
      <rect x="282" y="13" width="260" height="42" rx="8" fill="#252c36" stroke="#394453"/>
      <text x="300" y="39" font-size="15" font-weight="800" fill="#f7fbff">Pool 1 <tspan font-size="12" font-weight="500" fill="#9eacbb">healthy</tspan></text>
    </g>
  </g>
</svg>
