<svg xmlns="http://www.w3.org/2000/svg" width="1200" height="420" viewBox="0 0 1200 420" role="img" aria-labelledby="title desc">
  <title id="title">Drive Storage Card</title>
  <desc id="desc">Mushroom-style Home Assistant Lovelace card banner with a compatible storage dashboard preview.</desc>
  <defs>
    <linearGradient id="bg" x1="0" x2="1" y1="0" y2="1">
      <stop offset="0" stop-color="#0b6f8f"/>
      <stop offset="0.54" stop-color="#20a39e"/>
      <stop offset="1" stop-color="#f2a541"/>
    </linearGradient>
    <linearGradient id="panel" x1="0" x2="1" y1="0" y2="1">
      <stop offset="0" stop-color="#ffffff"/>
      <stop offset="1" stop-color="#eef9f9"/>
    </linearGradient>
    <filter id="shadow" x="-20%" y="-20%" width="140%" height="150%" color-interpolation-filters="sRGB">
      <feDropShadow dx="0" dy="18" stdDeviation="18" flood-color="#05303a" flood-opacity="0.24"/>
    </filter>
  </defs>

  <rect width="1200" height="420" rx="0" fill="url(#bg)"/>
  <path d="M0 318 C150 268 272 370 440 318 C620 262 765 258 930 310 C1046 347 1125 332 1200 292 L1200 420 L0 420 Z" fill="#ffffff" opacity="0.17"/>
  <path d="M56 82 C150 28 240 55 334 88 C468 134 606 101 733 64 C877 22 1015 38 1144 92" fill="none" stroke="#ffffff" stroke-width="2" opacity="0.28"/>

  <g transform="translate(78 82)">
    <rect x="0" y="0" width="490" height="236" rx="28" fill="#ffffff" opacity="0.14"/>
    <text x="0" y="46" font-family="Inter, Segoe UI, Arial, sans-serif" font-size="54" font-weight="800" fill="#ffffff">Drive Storage Card</text>
    <text x="0" y="91" font-family="Inter, Segoe UI, Arial, sans-serif" font-size="24" font-weight="600" fill="#e8fbff">Mushroom-style control for Home Assistant</text>
    <g transform="translate(0 128)">
      <rect x="0" y="0" width="142" height="38" rx="19" fill="#ffffff" opacity="0.22"/>
      <circle cx="25" cy="19" r="9" fill="#8df4df"/>
      <text x="43" y="26" font-family="Inter, Segoe UI, Arial, sans-serif" font-size="16" font-weight="700" fill="#ffffff">Lovelace</text>
      <rect x="158" y="0" width="112" height="38" rx="19" fill="#ffffff" opacity="0.22"/>
      <circle cx="183" cy="19" r="9" fill="#ffd37a"/>
      <text x="201" y="26" font-family="Inter, Segoe UI, Arial, sans-serif" font-size="16" font-weight="700" fill="#ffffff">HACS</text>
      <rect x="286" y="0" width="156" height="38" rx="19" fill="#ffffff" opacity="0.22"/>
      <circle cx="311" cy="19" r="9" fill="#a8d8ff"/>
      <text x="329" y="26" font-family="Inter, Segoe UI, Arial, sans-serif" font-size="16" font-weight="700" fill="#ffffff">TypeScript</text>
    </g>
    <text x="0" y="212" font-family="Inter, Segoe UI, Arial, sans-serif" font-size="18" fill="#f4ffff" opacity="0.9">Storage, pools, drives, snapshots, updates and diagnostics.</text>
  </g>

  <g transform="translate(657 52)" filter="url(#shadow)">
    <rect x="0" y="0" width="430" height="316" rx="30" fill="url(#panel)"/>
    <g transform="translate(30 28)">
      <circle cx="33" cy="33" r="33" fill="#d7f5f3"/>
      <path d="M33 15 C46 32 52 43 52 52 C52 63 44 72 33 72 C22 72 14 63 14 52 C14 43 20 32 33 15 Z" fill="#168eaa"/>
      <text x="84" y="29" font-family="Inter, Segoe UI, Arial, sans-serif" font-size="23" font-weight="800" fill="#16343f">Storage system</text>
      <text x="84" y="57" font-family="Inter, Segoe UI, Arial, sans-serif" font-size="16" fill="#5a6c72">Connected UNAS storage</text>
      <rect x="0" y="90" width="370" height="70" rx="20" fill="#f7fbfb"/>
      <text x="22" y="119" font-family="Inter, Segoe UI, Arial, sans-serif" font-size="15" fill="#5a6c72">Storage usage</text>
      <text x="22" y="148" font-family="Inter, Segoe UI, Arial, sans-serif" font-size="34" font-weight="800" fill="#16343f">42%</text>
      <rect x="234" y="107" width="48" height="36" rx="18" fill="#e8f5f5"/>
      <text x="252" y="132" font-family="Inter, Segoe UI, Arial, sans-serif" font-size="24" font-weight="800" fill="#168eaa">-</text>
      <rect x="296" y="107" width="48" height="36" rx="18" fill="#168eaa"/>
      <text x="313" y="132" font-family="Inter, Segoe UI, Arial, sans-serif" font-size="24" font-weight="800" fill="#ffffff">+</text>
      <g transform="translate(0 183)">
        <rect x="0" y="0" width="115" height="72" rx="18" fill="#eaf7f3"/>
        <text x="18" y="31" font-family="Inter, Segoe UI, Arial, sans-serif" font-size="15" fill="#527166">Pool</text>
        <text x="18" y="55" font-family="Inter, Segoe UI, Arial, sans-serif" font-size="20" font-weight="800" fill="#198c64">On</text>
        <rect x="128" y="0" width="115" height="72" rx="18" fill="#fff4dd"/>
        <text x="146" y="31" font-family="Inter, Segoe UI, Arial, sans-serif" font-size="15" fill="#7b673d">Drive</text>
        <text x="146" y="55" font-family="Inter, Segoe UI, Arial, sans-serif" font-size="20" font-weight="800" fill="#c9790d">31 C</text>
        <rect x="256" y="0" width="115" height="72" rx="18" fill="#edf4ff"/>
        <text x="274" y="31" font-family="Inter, Segoe UI, Arial, sans-serif" font-size="15" fill="#536b8d">Snapshots</text>
        <text x="274" y="55" font-family="Inter, Segoe UI, Arial, sans-serif" font-size="20" font-weight="800" fill="#2771c4">On</text>
      </g>
    </g>
  </g>
</svg>
